<svg width="32" height="26" viewBox="0 0 32 26" fill="none" xmlns="http://www.w3.org/2000/svg">
<path d="M0.773189 10.747C0.278091 11.2427 0 11.9147 0 12.6153C0 13.3159 0.278091 13.9879 0.773189 14.4836L10.7421 24.4578C11.238 24.9537 11.9107 25.2324 12.6121 25.2324C13.3135 25.2324 13.9862 24.9537 14.4822 24.4578C14.9781 23.9618 15.2568 23.2891 15.2568 22.5877C15.2568 21.8863 14.9781 21.2136 14.4822 20.7177L9.02537 15.2591L29.3562 15.2591C30.0574 15.2591 30.7298 14.9806 31.2256 14.4847C31.7215 13.9889 32 13.3165 32 12.6153C32 11.9141 31.7215 11.2417 31.2256 10.7458C30.7298 10.25 30.0574 9.9715 29.3562 9.9715L9.02537 9.9715L14.4822 4.51469C14.7278 4.26911 14.9226 3.97757 15.0555 3.65671C15.1884 3.33584 15.2568 2.99194 15.2568 2.64464C15.2568 2.29734 15.1884 1.95344 15.0555 1.63258C14.9226 1.31172 14.7278 1.02017 14.4822 0.774593C14.2366 0.529015 13.9451 0.334213 13.6242 0.201307C13.3033 0.0684013 12.9594 -5.72205e-06 12.6121 -5.72205e-06C12.2648 -5.72205e-06 11.9209 0.0684013 11.6001 0.201307C11.2792 0.334213 10.9877 0.529015 10.7421 0.774593L0.773189 10.747Z" fill="white"/>
</svg>
