<svg width="33" height="28" viewBox="0 0 33 28" fill="none" xmlns="http://www.w3.org/2000/svg">
<path d="M23.7903 5.8025H2.90125C2.13179 5.8025 1.39385 6.10817 0.849757 6.65226C0.305667 7.19635 0 7.9343 0 8.70375V24.9508C0 25.7202 0.305667 26.4582 0.849757 27.0023C1.39385 27.5463 2.13179 27.852 2.90125 27.852H23.7903C24.5597 27.852 25.2977 27.5463 25.8418 27.0023C26.3858 26.4582 26.6915 25.7202 26.6915 24.9508V8.70375C26.6915 7.9343 26.3858 7.19635 25.8418 6.65226C25.2977 6.10817 24.5597 5.8025 23.7903 5.8025ZM23.21 24.3705H3.4815V9.28401H23.21V24.3705ZM32.494 2.90125V20.889C32.494 21.3507 32.3106 21.7935 31.9842 22.1199C31.6577 22.4464 31.2149 22.6298 30.7533 22.6298C30.2916 22.6298 29.8488 22.4464 29.5224 22.1199C29.1959 21.7935 29.0125 21.3507 29.0125 20.889V3.4815H6.963C6.50133 3.4815 6.05856 3.2981 5.73211 2.97165C5.40565 2.64519 5.22225 2.20243 5.22225 1.74075C5.22225 1.27908 5.40565 0.836308 5.73211 0.509854C6.05856 0.1834 6.50133 9.72909e-09 6.963 0H29.5928C30.3622 0 31.1002 0.305667 31.6443 0.849757C32.1884 1.39385 32.494 2.13179 32.494 2.90125Z" fill="#8D00AD"/>
</svg>
