<svg width="25" height="30" viewBox="0 0 25 30" fill="none" xmlns="http://www.w3.org/2000/svg">
<path d="M11.6079 1.00994L9.92241 0L9.60137 1.93829C9.09037 4.99889 6.99959 7.84278 4.69344 9.84126C0.178795 13.7553 -0.809746 18.0091 0.588123 21.5205C1.9258 24.8807 5.32081 27.1815 8.76666 27.5654L9.56391 27.6537C7.59218 26.4485 6.32674 23.6327 6.76817 21.5285C7.20426 19.4605 8.69175 17.5235 11.549 15.7364L12.9897 14.8375L13.5274 16.4494C13.8445 17.4018 14.3929 18.1669 14.9507 18.9441C15.2183 19.3187 15.4898 19.6972 15.7386 20.0999C16.5987 21.4977 16.8261 23.0521 16.271 24.5945C15.7654 25.9963 14.932 27.0986 13.7829 27.7099L15.0805 27.5654C18.315 27.2056 20.6893 26.0993 22.2317 24.2493C23.7606 22.4154 24.297 20.0544 24.297 17.5409C24.297 15.2 23.3353 12.7868 22.2009 10.779C20.8713 8.42734 19.1363 6.47434 17.2422 4.58153C16.9144 5.23699 16.9398 5.50185 16.2657 6.5546C15.3902 4.22967 13.7469 2.27348 11.6079 1.00994Z" fill="#8D00AD"/>
</svg>
