<svg width="32" height="32" viewBox="0 0 32 32" fill="none" xmlns="http://www.w3.org/2000/svg">
<path d="M28.8778 12.8782C28.8778 12.622 28.8274 12.3682 28.7293 12.1315C28.6313 11.8948 28.4875 11.6797 28.3064 11.4985C28.1252 11.3173 27.9101 11.1736 27.6733 11.0755C27.4366 10.9775 27.1829 10.927 26.9267 10.927C26.6704 10.927 26.4167 10.9775 26.18 11.0755C25.9432 11.1736 25.7281 11.3173 25.547 11.4985C25.3658 11.6797 25.222 11.8948 25.124 12.1315C25.0259 12.3682 24.9755 12.622 24.9755 12.8782H28.8778ZM7.02454 12.8782C7.02454 12.3607 6.81896 11.8644 6.45305 11.4985C6.08713 11.1326 5.59083 10.927 5.07335 10.927C4.55586 10.927 4.05957 11.1326 3.69365 11.4985C3.32773 11.8644 3.12216 12.3607 3.12216 12.8782H7.02454ZM28.6687 17.38C29.0346 17.746 29.531 17.9516 30.0486 17.9516C30.5661 17.9516 31.0625 17.746 31.4284 17.38C31.7944 17.014 32 16.5177 32 16.0001C32 15.4826 31.7944 14.9862 31.4284 14.6202L28.6687 17.38ZM16 1.95155L17.3799 0.571672C17.1987 0.390433 16.9836 0.246663 16.7468 0.148575C16.51 0.0504859 16.2563 0 16 0C15.7437 0 15.49 0.0504859 15.2532 0.148575C15.0164 0.246663 14.8013 0.390433 14.6201 0.571672L16 1.95155ZM0.571565 14.6202C0.205598 14.9862 0 15.4826 0 16.0001C0 16.5177 0.205598 17.014 0.571565 17.38C0.937532 17.746 1.43389 17.9516 1.95145 17.9516C2.469 17.9516 2.96536 17.746 3.33133 17.38L0.571565 14.6202ZM8.19525 31.9999H23.8048V28.0975H8.19525V31.9999ZM28.8778 26.9268V12.8782H24.9755V26.9268H28.8778ZM7.02454 26.9268V12.8782H3.12216V26.9268H7.02454ZM31.4284 14.6202L17.3799 0.571672L14.6201 3.33143L28.6687 17.38L31.4284 14.6202ZM14.6201 0.571672L0.571565 14.6202L3.33133 17.38L17.3799 3.33143L14.6201 0.571672ZM23.8048 31.9999C25.1502 31.9999 26.4406 31.4654 27.392 30.514C28.3434 29.5626 28.8778 28.2722 28.8778 26.9268H24.9755C24.9755 27.2373 24.8521 27.535 24.6326 27.7546C24.413 27.9741 24.1152 28.0975 23.8048 28.0975V31.9999ZM8.19525 28.0975C7.88476 28.0975 7.58698 27.9741 7.36743 27.7546C7.14788 27.535 7.02454 27.2373 7.02454 26.9268H3.12216C3.12216 28.2722 3.65664 29.5626 4.60803 30.514C5.55942 31.4654 6.84978 31.9999 8.19525 31.9999V28.0975Z" fill="#8D00AD"/>
</svg>
