<svg width="630" height="517" viewBox="0 0 630 517" fill="none" xmlns="http://www.w3.org/2000/svg">
<g filter="url(#filter0_bi_136_188)">
<rect x="342.212" width="291.279" height="365.078" rx="27.9539" transform="rotate(9.83834 342.212 0)" fill="url(#paint0_radial_136_188)"/>
<rect x="341.757" y="-0.646385" width="292.398" height="366.196" rx="28.513" transform="rotate(9.83834 341.757 -0.646385)" stroke="url(#paint1_linear_136_188)" stroke-opacity="0.4" stroke-width="1.11816"/>
</g>
<g clip-path="url(#clip0_136_188)">
<path fill-rule="evenodd" clip-rule="evenodd" d="M497.975 164.079C499.776 164.392 501.446 165.225 502.78 166.475C504.114 167.725 505.053 169.338 505.482 171.115L529.488 270.429C529.812 271.637 529.891 272.898 529.72 274.137C529.55 275.376 529.133 276.569 528.494 277.644C527.855 278.72 527.008 279.657 526.001 280.4C524.995 281.143 523.85 281.677 522.634 281.97C521.418 282.264 520.156 282.311 518.921 282.11C517.687 281.908 516.505 281.461 515.446 280.796C514.387 280.131 513.472 279.26 512.754 278.235C512.036 277.211 511.531 276.053 511.268 274.83L506.298 254.329L459.731 246.252L448.173 263.886C446.809 265.966 444.675 267.419 442.24 267.926C439.805 268.433 437.269 267.952 435.189 266.588C433.108 265.225 431.655 263.091 431.148 260.656C430.642 258.221 431.123 255.684 432.486 253.604L488.535 168.176C489.538 166.647 490.966 165.445 492.643 164.717C494.32 163.989 496.173 163.767 497.975 164.079ZM470.953 229.169L501.497 234.466L492.343 196.544L470.953 229.169ZM432.623 101.997C435.073 102.422 437.253 103.803 438.685 105.835C440.117 107.868 440.683 110.386 440.258 112.836L437.564 128.367C448.214 130.533 458.744 133.253 469.11 136.516C471.482 137.263 473.46 138.923 474.608 141.129C475.757 143.335 475.982 145.907 475.234 148.279C474.486 150.651 472.827 152.628 470.62 153.777C468.414 154.925 465.843 155.15 463.471 154.402C460.825 153.563 458.164 152.763 455.488 152.003C448.554 166.189 439.589 179.289 428.876 190.889C431.15 195.141 433.615 199.26 436.273 203.248C437.656 205.315 438.161 207.846 437.677 210.286C437.193 212.725 435.76 214.872 433.693 216.255C431.627 217.637 429.095 218.142 426.656 217.659C424.217 217.175 422.069 215.742 420.687 213.675C418.645 210.619 416.707 207.495 414.877 204.307C402.718 214.678 389.095 223.199 374.448 229.595C372.182 230.528 369.64 230.536 367.368 229.618C365.095 228.7 363.272 226.929 362.29 224.683C361.308 222.438 361.244 219.897 362.112 217.605C362.98 215.313 364.712 213.452 366.935 212.421C381.323 206.113 394.589 197.51 406.217 186.947C404.433 182.77 402.825 178.521 401.397 174.211C400.617 171.85 400.807 169.275 401.925 167.054C403.043 164.833 404.998 163.148 407.359 162.368C409.72 161.588 412.294 161.778 414.515 162.896C416.736 164.014 418.422 165.968 419.202 168.329L420.47 171.987C426.702 164.441 432.191 156.196 436.818 147.369C420.065 143.78 403.036 141.633 385.916 140.951C383.431 140.856 381.085 139.778 379.394 137.954C377.704 136.13 376.807 133.708 376.902 131.223C376.997 128.738 378.075 126.392 379.899 124.702C381.723 123.011 384.144 122.115 386.629 122.209C397.383 122.628 408.199 123.612 419.077 125.16L421.771 109.63C421.982 108.416 422.43 107.255 423.089 106.214C423.749 105.173 424.607 104.273 425.615 103.564C426.622 102.855 427.76 102.352 428.963 102.083C430.165 101.814 431.409 101.785 432.623 101.997Z" fill="white"/>
</g>
<g filter="url(#filter1_bi_136_188)">
<g clip-path="url(#clip1_136_188)">
<rect y="253.585" width="291.279" height="365.078" rx="27.9539" transform="rotate(-43.8217 0 253.585)" fill="url(#paint2_radial_136_188)"/>
<g clip-path="url(#clip2_136_188)">
<path d="M183.305 290.53L179.902 327.941L217.312 324.538C218.544 324.416 219.787 324.538 220.971 324.899C222.155 325.26 223.255 325.851 224.209 326.64C225.163 327.428 225.951 328.397 226.529 329.491C227.107 330.586 227.462 331.784 227.574 333.016C227.686 334.249 227.553 335.491 227.183 336.672C226.813 337.852 226.213 338.948 225.417 339.896C224.621 340.843 223.646 341.624 222.547 342.193C221.448 342.762 220.247 343.107 219.014 343.21L170.4 347.629C169.031 347.754 167.652 347.576 166.359 347.108C165.067 346.64 163.893 345.894 162.921 344.922C161.949 343.95 161.202 342.776 160.734 341.484C160.267 340.191 160.089 338.811 160.213 337.442L164.633 288.829C164.877 286.367 166.084 284.102 167.991 282.527C169.898 280.951 172.35 280.193 174.813 280.418C177.276 280.642 179.551 281.831 181.141 283.725C182.732 285.619 183.51 288.065 183.305 290.53ZM292.442 205.213L243.829 209.633C242.596 209.735 241.395 210.081 240.296 210.65C239.197 211.218 238.221 211.999 237.426 212.947C236.63 213.894 236.03 214.99 235.659 216.171C235.289 217.352 235.156 218.594 235.269 219.826C235.381 221.059 235.736 222.257 236.314 223.351C236.891 224.446 237.68 225.415 238.634 226.203C239.588 226.991 240.688 227.583 241.872 227.943C243.055 228.304 244.299 228.427 245.53 228.305L282.941 224.902L279.538 262.312C279.416 263.544 279.538 264.787 279.899 265.971C280.26 267.155 280.851 268.255 281.64 269.209C282.428 270.163 283.397 270.951 284.491 271.529C285.586 272.107 286.784 272.462 288.016 272.574C289.248 272.686 290.491 272.554 291.672 272.183C292.852 271.813 293.948 271.213 294.896 270.417C295.843 269.621 296.624 268.646 297.193 267.547C297.762 266.448 298.107 265.247 298.21 264.014L302.629 215.4C302.754 214.031 302.576 212.652 302.108 211.359C301.64 210.067 300.894 208.893 299.922 207.921C298.95 206.949 297.776 206.202 296.484 205.734C295.191 205.267 293.811 205.089 292.442 205.213ZM196.519 201.634C195.403 202.154 194.401 202.89 193.569 203.798C192.737 204.706 192.093 205.769 191.672 206.927C191.252 208.084 191.063 209.313 191.117 210.543C191.172 211.773 191.468 212.981 191.989 214.096L253.861 346.679C254.914 348.93 256.817 350.671 259.153 351.52C261.489 352.368 264.066 352.254 266.318 351.203C267.311 350.746 268.214 350.116 268.986 349.342C270.348 347.981 271.257 346.234 271.591 344.338C271.925 342.443 271.668 340.49 270.854 338.746L208.982 206.164C208.461 205.048 207.726 204.045 206.817 203.214C205.909 202.382 204.846 201.738 203.689 201.317C202.531 200.896 201.303 200.708 200.072 200.762C198.842 200.816 197.635 201.113 196.519 201.634Z" fill="white"/>
</g>
</g>
<rect x="-0.790488" y="253.569" width="292.398" height="366.196" rx="28.513" transform="rotate(-43.8217 -0.790488 253.569)" stroke="url(#paint3_linear_136_188)" stroke-opacity="0.4" stroke-width="1.11816"/>
</g>
<defs>
<filter id="filter0_bi_136_188" x="256.351" y="-23.4813" width="396.339" height="456.442" filterUnits="userSpaceOnUse" color-interpolation-filters="sRGB">
<feFlood flood-opacity="0" result="BackgroundImageFix"/>
<feGaussianBlur in="BackgroundImageFix" stdDeviation="11.7406"/>
<feComposite in2="SourceAlpha" operator="in" result="effect1_backgroundBlur_136_188"/>
<feBlend mode="normal" in="SourceGraphic" in2="effect1_backgroundBlur_136_188" result="shape"/>
<feColorMatrix in="SourceAlpha" type="matrix" values="0 0 0 0 0 0 0 0 0 0 0 0 0 0 0 0 0 0 127 0" result="hardAlpha"/>
<feOffset dx="-2.79539" dy="-2.79539"/>
<feGaussianBlur stdDeviation="69.8847"/>
<feComposite in2="hardAlpha" operator="arithmetic" k2="-1" k3="1"/>
<feColorMatrix type="matrix" values="0 0 0 0 1 0 0 0 0 1 0 0 0 0 1 0 0 0 0.02 0"/>
<feBlend mode="normal" in2="shape" result="effect2_innerShadow_136_188"/>
</filter>
<filter id="filter1_bi_136_188" x="-23.4813" y="28.4171" width="509.906" height="512.052" filterUnits="userSpaceOnUse" color-interpolation-filters="sRGB">
<feFlood flood-opacity="0" result="BackgroundImageFix"/>
<feGaussianBlur in="BackgroundImageFix" stdDeviation="11.7406"/>
<feComposite in2="SourceAlpha" operator="in" result="effect1_backgroundBlur_136_188"/>
<feBlend mode="normal" in="SourceGraphic" in2="effect1_backgroundBlur_136_188" result="shape"/>
<feColorMatrix in="SourceAlpha" type="matrix" values="0 0 0 0 0 0 0 0 0 0 0 0 0 0 0 0 0 0 127 0" result="hardAlpha"/>
<feOffset dx="-2.79539" dy="-2.79539"/>
<feGaussianBlur stdDeviation="69.8847"/>
<feComposite in2="hardAlpha" operator="arithmetic" k2="-1" k3="1"/>
<feColorMatrix type="matrix" values="0 0 0 0 1 0 0 0 0 1 0 0 0 0 1 0 0 0 0.02 0"/>
<feBlend mode="normal" in2="shape" result="effect2_innerShadow_136_188"/>
</filter>
<radialGradient id="paint0_radial_136_188" cx="0" cy="0" r="1" gradientUnits="userSpaceOnUse" gradientTransform="translate(342.212) rotate(51.4152) scale(467.039 316.414)">
<stop stop-color="white" stop-opacity="0.4"/>
<stop offset="1" stop-color="white" stop-opacity="0"/>
</radialGradient>
<linearGradient id="paint1_linear_136_188" x1="342.212" y1="0" x2="437.831" y2="398.121" gradientUnits="userSpaceOnUse">
<stop stop-color="white"/>
<stop offset="1" stop-color="#EEEDED" stop-opacity="0.5"/>
</linearGradient>
<radialGradient id="paint2_radial_136_188" cx="0" cy="0" r="1" gradientUnits="userSpaceOnUse" gradientTransform="translate(0 253.585) rotate(51.4152) scale(467.039 316.414)">
<stop stop-color="white" stop-opacity="0.4"/>
<stop offset="1" stop-color="white" stop-opacity="0"/>
</radialGradient>
<linearGradient id="paint3_linear_136_188" x1="0" y1="253.585" x2="95.6189" y2="651.706" gradientUnits="userSpaceOnUse">
<stop stop-color="white"/>
<stop offset="1" stop-color="#EEEDED" stop-opacity="0.5"/>
</linearGradient>
<clipPath id="clip0_136_188">
<rect width="200" height="200" fill="white" transform="translate(373.179 79) rotate(9.84)"/>
</clipPath>
<clipPath id="clip1_136_188">
<rect y="253.585" width="291.279" height="365.078" rx="27.9539" transform="rotate(-43.8217 0 253.585)" fill="white"/>
</clipPath>
<clipPath id="clip2_136_188">
<rect width="200" height="200" fill="white" transform="translate(90 276.421) rotate(-45)"/>
</clipPath>
</defs>
</svg>
