<svg width="78" height="48" viewBox="0 0 78 48" fill="none" xmlns="http://www.w3.org/2000/svg">
<g filter="url(#filter0_d_27_112)">
<rect width="6" height="31.3163" rx="3" transform="matrix(0.514245 0.857643 0.857643 -0.514245 44 35.6537)" fill="url(#paint0_linear_27_112)"/>
<path d="M50.1884 2.72073C48.8312 1.7704 46.9606 2.10024 46.0102 3.45746C45.0599 4.81467 45.3897 6.68531 46.747 7.63564L68.0449 22.5486C69.4021 23.499 71.2728 23.1691 72.2231 21.8119C73.1734 20.4547 72.8436 18.584 71.4864 17.6337L50.1884 2.72073Z" fill="url(#paint1_linear_27_112)"/>
<path d="M75.7117 3C75.7117 1.34315 74.3685 0 72.7117 0C71.0548 0 69.7117 1.34315 69.7117 3V41C69.7117 42.6569 71.0548 44 72.7117 44C74.3685 44 75.7117 42.6569 75.7117 41V3Z" fill="#6D0075"/>
<rect x="33.7117" y="35.6537" width="6" height="31.3163" rx="3" transform="rotate(120.947 33.7117 35.6537)" fill="url(#paint2_linear_27_112)"/>
<path d="M27.5235 2.72073C28.8807 1.7704 30.7514 2.10024 31.7017 3.45746C32.652 4.81467 32.3222 6.68531 30.965 7.63564L9.66701 22.5486C8.30979 23.499 6.43915 23.1691 5.48882 21.8119C4.53849 20.4547 4.86833 18.584 6.22555 17.6337L27.5235 2.72073Z" fill="url(#paint3_linear_27_112)"/>
<path d="M27.5235 2.72073C28.8807 1.7704 30.7514 2.10024 31.7017 3.45746C32.652 4.81467 32.3222 6.68531 30.965 7.63564L9.66701 22.5486C8.30979 23.499 6.43915 23.1691 5.48882 21.8119C4.53849 20.4547 4.86833 18.584 6.22555 17.6337L27.5235 2.72073Z" fill="url(#paint4_linear_27_112)"/>
<path d="M2 3C2 1.34315 3.34315 0 5 0C6.65685 0 8 1.34315 8 3V41C8 42.6569 6.65685 44 5 44C3.34315 44 2 42.6569 2 41V3Z" fill="#6D0075"/>
</g>
<defs>
<filter id="filter0_d_27_112" x="0.37037" y="0" width="76.9709" height="47.2593" filterUnits="userSpaceOnUse" color-interpolation-filters="sRGB">
<feFlood flood-opacity="0" result="BackgroundImageFix"/>
<feColorMatrix in="SourceAlpha" type="matrix" values="0 0 0 0 0 0 0 0 0 0 0 0 0 0 0 0 0 0 127 0" result="hardAlpha"/>
<feOffset dy="1.62963"/>
<feGaussianBlur stdDeviation="0.814815"/>
<feComposite in2="hardAlpha" operator="out"/>
<feColorMatrix type="matrix" values="0 0 0 0 0 0 0 0 0 0 0 0 0 0 0 0 0 0 0.25 0"/>
<feBlend mode="normal" in2="BackgroundImageFix" result="effect1_dropShadow_27_112"/>
<feBlend mode="normal" in="SourceGraphic" in2="effect1_dropShadow_27_112" result="shape"/>
</filter>
<linearGradient id="paint0_linear_27_112" x1="2.81411" y1="10.8259" x2="3.06698" y2="25.8321" gradientUnits="userSpaceOnUse">
<stop stop-color="#ED8FFE"/>
<stop offset="1" stop-color="#6D0075"/>
</linearGradient>
<linearGradient id="paint1_linear_27_112" x1="54.2321" y1="8.5" x2="68.7321" y2="19" gradientUnits="userSpaceOnUse">
<stop stop-color="#ED8FFE"/>
<stop offset="1" stop-color="#6D0075"/>
</linearGradient>
<linearGradient id="paint2_linear_27_112" x1="36.5258" y1="46.4796" x2="36.7786" y2="61.4858" gradientUnits="userSpaceOnUse">
<stop stop-color="#ED8FFE"/>
<stop offset="1" stop-color="#6D0075"/>
</linearGradient>
<linearGradient id="paint3_linear_27_112" x1="23.4799" y1="8.5" x2="8.97986" y2="19" gradientUnits="userSpaceOnUse">
<stop stop-color="#ED8FFE"/>
<stop offset="1" stop-color="#6D0075"/>
</linearGradient>
<linearGradient id="paint4_linear_27_112" x1="23.4799" y1="8.5" x2="8.97986" y2="19" gradientUnits="userSpaceOnUse">
<stop stop-color="#ED8FFE"/>
<stop offset="1" stop-color="#6D0075"/>
</linearGradient>
</defs>
</svg>
