<svg width="33" height="33" viewBox="0 0 33 33" fill="none" xmlns="http://www.w3.org/2000/svg">
<path d="M28.7275 6.03178L26.9346 5.28247V17.365L30.186 9.52406C30.7346 8.15926 30.1057 6.59375 28.7275 6.03178ZM2.63575 10.9825L9.27243 26.9721C9.46786 27.4586 9.80121 27.8773 10.2315 28.1769C10.6618 28.4764 11.1702 28.6437 11.6943 28.658C12.0422 28.658 12.4034 28.5911 12.7513 28.444L22.6127 24.3629C23.6162 23.9481 24.2317 22.958 24.2585 21.9678C24.2719 21.6199 24.205 21.2319 24.0845 20.884L17.3943 4.89444C17.2058 4.40433 16.8738 3.98249 16.4418 3.68408C16.0097 3.38568 15.4976 3.2246 14.9725 3.22189C14.6246 3.22189 14.2767 3.30218 13.9422 3.4226L4.09422 7.50362C3.4396 7.77169 2.91823 8.28875 2.64474 8.94112C2.37124 9.59349 2.36801 10.3278 2.63575 10.9825ZM24.2451 5.89797C24.2451 5.18823 23.9632 4.50756 23.4613 4.0057C22.9594 3.50384 22.2788 3.22189 21.569 3.22189H19.6289L24.2451 14.3811" fill="#8D00AD"/>
</svg>
