<svg width="64" height="64" viewBox="0 0 64 64" fill="none" xmlns="http://www.w3.org/2000/svg">
<circle cx="32" cy="32" r="32" fill="#14001E"/>
<path d="M39.8906 34.2247C42.9866 35.6861 45.6264 37.9627 47.527 40.8103C49.4276 43.6579 50.5173 46.969 50.6792 50.3888C50.7008 50.702 50.6596 51.0164 50.558 51.3135C50.4564 51.6106 50.2965 51.8845 50.0877 52.1189C49.8788 52.3534 49.6252 52.5438 49.3418 52.6789C49.0584 52.8141 48.7508 52.8912 48.4372 52.9059C48.1235 52.9205 47.8101 52.8724 47.5153 52.7643C47.2205 52.6562 46.9503 52.4902 46.7205 52.2763C46.4907 52.0623 46.306 51.8046 46.1771 51.5183C46.0483 51.2319 45.9779 50.9227 45.9702 50.6088C45.7988 46.9765 44.2353 43.5498 41.6041 41.0398C38.973 38.5299 35.4763 37.1295 31.84 37.1295C28.2036 37.1295 24.707 38.5299 22.0758 41.0398C19.4447 43.5498 17.8811 46.9765 17.7097 50.6088C17.6674 51.2237 17.386 51.7975 16.9258 52.2074C16.4656 52.6173 15.8632 52.8307 15.2476 52.8019C14.632 52.7731 14.0521 52.5045 13.6322 52.0534C13.2122 51.6024 12.9855 51.0049 13.0007 50.3888C13.1624 46.9694 14.2516 43.6584 16.1516 40.8109C18.0517 37.9633 20.6908 35.6866 23.7862 34.2247C21.8027 32.5702 20.3769 30.3449 19.7029 27.8514C19.0289 25.3579 19.1393 22.7173 20.0192 20.2888C20.8991 17.8603 22.5056 15.7618 24.6204 14.2787C26.7352 12.7957 29.2554 12 31.8384 12C34.4214 12 36.9416 12.7957 39.0564 14.2787C41.1712 15.7618 42.7777 17.8603 43.6576 20.2888C44.5375 22.7173 44.6479 25.3579 43.9739 27.8514C43.2999 30.3449 41.8741 32.5702 39.8906 34.2247ZM39.6988 24.5646C39.6988 22.4803 38.8708 20.4813 37.397 19.0075C35.9232 17.5337 33.9243 16.7057 31.84 16.7057C29.7557 16.7057 27.7567 17.5337 26.2829 19.0075C24.8091 20.4813 23.9811 22.4803 23.9811 24.5646C23.9811 26.6489 24.8091 28.6478 26.2829 30.1216C27.7567 31.5954 29.7557 32.4234 31.84 32.4234C33.9243 32.4234 35.9232 31.5954 37.397 30.1216C38.8708 28.6478 39.6988 26.6489 39.6988 24.5646Z" fill="white"/>
</svg>
