<svg width="29" height="30" viewBox="0 0 29 30" fill="none" xmlns="http://www.w3.org/2000/svg">
<path d="M25.7333 0.825012H3.21667C2.36355 0.825012 1.54538 1.16391 0.94214 1.76715C0.338898 2.37039 0 3.18857 0 4.04168V26.5583C0 27.4115 0.338898 28.2296 0.94214 28.8329C1.54538 29.4361 2.36355 29.775 3.21667 29.775H25.7333C26.5864 29.775 27.4046 29.4361 28.0079 28.8329C28.6111 28.2296 28.95 27.4115 28.95 26.5583V4.04168C28.95 3.18857 28.6111 2.37039 28.0079 1.76715C27.4046 1.16391 26.5864 0.825012 25.7333 0.825012ZM25.7333 26.5583H3.21667V4.04168H25.7333V26.5583ZM9.65 23.3417H6.43333V15.3H9.65V23.3417ZM16.0833 23.3417H12.8667V7.25835H16.0833V23.3417ZM22.5167 23.3417H19.3V12.0833H22.5167V23.3417Z" fill="#8D00AD"/>
</svg>
